<mxfile host="app.diagrams.net" modified="2023-05-06T10:14:08.486Z" agent="Mozilla/5.0 (Windows NT 10.0; Win64; x64) AppleWebKit/537.36 (KHTML, like Gecko) Chrome/112.0.0.0 Safari/537.36" etag="77EtxG7DidtJCkvyqrjF" version="21.2.9" type="device">
  <diagram name="Page-1" id="7x5mFuv1EIT4P0MoVlMk">
    <mxGraphModel dx="1347" dy="734" grid="1" gridSize="10" guides="1" tooltips="1" connect="1" arrows="1" fold="1" page="1" pageScale="1" pageWidth="850" pageHeight="1100" math="0" shadow="0">
      <root>
        <mxCell id="0" />
        <mxCell id="1" parent="0" />
        <mxCell id="OizBejJ-ZaFwju5l1YRZ-16" style="edgeStyle=orthogonalEdgeStyle;rounded=0;orthogonalLoop=1;jettySize=auto;html=1;exitX=0.5;exitY=0;exitDx=0;exitDy=0;entryX=0.5;entryY=1;entryDx=0;entryDy=0;" edge="1" parent="1" source="OizBejJ-ZaFwju5l1YRZ-1" target="OizBejJ-ZaFwju5l1YRZ-7">
          <mxGeometry relative="1" as="geometry" />
        </mxCell>
        <mxCell id="OizBejJ-ZaFwju5l1YRZ-48" style="edgeStyle=orthogonalEdgeStyle;rounded=0;orthogonalLoop=1;jettySize=auto;html=1;exitX=0.5;exitY=1;exitDx=0;exitDy=0;entryX=0.137;entryY=-0.024;entryDx=0;entryDy=0;entryPerimeter=0;startArrow=classic;startFill=1;endArrow=none;endFill=0;" edge="1" parent="1" source="OizBejJ-ZaFwju5l1YRZ-1" target="OizBejJ-ZaFwju5l1YRZ-46">
          <mxGeometry relative="1" as="geometry" />
        </mxCell>
        <mxCell id="OizBejJ-ZaFwju5l1YRZ-1" value="Camera&lt;br&gt;pre-processing" style="rounded=1;html=1;fillColor=#dae8fc;strokeColor=#6c8ebf;fontStyle=0;" vertex="1" parent="1">
          <mxGeometry x="160" y="440" width="120" height="60" as="geometry" />
        </mxCell>
        <mxCell id="OizBejJ-ZaFwju5l1YRZ-15" style="edgeStyle=orthogonalEdgeStyle;rounded=0;orthogonalLoop=1;jettySize=auto;html=1;exitX=0.5;exitY=0;exitDx=0;exitDy=0;entryX=0.5;entryY=1;entryDx=0;entryDy=0;" edge="1" parent="1" source="OizBejJ-ZaFwju5l1YRZ-2" target="OizBejJ-ZaFwju5l1YRZ-8">
          <mxGeometry relative="1" as="geometry" />
        </mxCell>
        <mxCell id="OizBejJ-ZaFwju5l1YRZ-49" style="edgeStyle=orthogonalEdgeStyle;rounded=0;orthogonalLoop=1;jettySize=auto;html=1;exitX=0.5;exitY=1;exitDx=0;exitDy=0;entryX=0.5;entryY=0;entryDx=0;entryDy=0;startArrow=classic;startFill=1;endArrow=none;endFill=0;" edge="1" parent="1" source="OizBejJ-ZaFwju5l1YRZ-2" target="OizBejJ-ZaFwju5l1YRZ-46">
          <mxGeometry relative="1" as="geometry" />
        </mxCell>
        <mxCell id="OizBejJ-ZaFwju5l1YRZ-2" value="LiDAR&#xa;pre-processing" style="rounded=1;fillColor=#dae8fc;strokeColor=#6c8ebf;fontStyle=0;" vertex="1" parent="1">
          <mxGeometry x="320" y="440" width="120" height="60" as="geometry" />
        </mxCell>
        <mxCell id="OizBejJ-ZaFwju5l1YRZ-14" style="edgeStyle=orthogonalEdgeStyle;rounded=0;orthogonalLoop=1;jettySize=auto;html=1;exitX=0.5;exitY=0;exitDx=0;exitDy=0;entryX=0.5;entryY=1;entryDx=0;entryDy=0;" edge="1" parent="1" source="OizBejJ-ZaFwju5l1YRZ-3" target="OizBejJ-ZaFwju5l1YRZ-9">
          <mxGeometry relative="1" as="geometry" />
        </mxCell>
        <mxCell id="OizBejJ-ZaFwju5l1YRZ-53" style="edgeStyle=orthogonalEdgeStyle;rounded=0;orthogonalLoop=1;jettySize=auto;html=1;exitX=0.5;exitY=1;exitDx=0;exitDy=0;entryX=0.864;entryY=0.019;entryDx=0;entryDy=0;entryPerimeter=0;startArrow=classic;startFill=1;endArrow=none;endFill=0;" edge="1" parent="1" source="OizBejJ-ZaFwju5l1YRZ-3" target="OizBejJ-ZaFwju5l1YRZ-46">
          <mxGeometry relative="1" as="geometry" />
        </mxCell>
        <mxCell id="OizBejJ-ZaFwju5l1YRZ-3" value="GNSS&#xa;pre-processing" style="rounded=1;fillColor=#dae8fc;strokeColor=#6c8ebf;fontStyle=0;" vertex="1" parent="1">
          <mxGeometry x="480" y="440" width="120" height="60" as="geometry" />
        </mxCell>
        <mxCell id="OizBejJ-ZaFwju5l1YRZ-59" style="edgeStyle=orthogonalEdgeStyle;rounded=0;orthogonalLoop=1;jettySize=auto;html=1;exitX=0;exitY=0.5;exitDx=0;exitDy=0;entryX=0;entryY=0.5;entryDx=0;entryDy=0;dashed=1;" edge="1" parent="1" source="OizBejJ-ZaFwju5l1YRZ-4" target="OizBejJ-ZaFwju5l1YRZ-44">
          <mxGeometry relative="1" as="geometry" />
        </mxCell>
        <mxCell id="OizBejJ-ZaFwju5l1YRZ-61" style="edgeStyle=orthogonalEdgeStyle;rounded=0;orthogonalLoop=1;jettySize=auto;html=1;exitX=0.5;exitY=0;exitDx=0;exitDy=0;entryX=0.136;entryY=1;entryDx=0;entryDy=0;entryPerimeter=0;" edge="1" parent="1" source="OizBejJ-ZaFwju5l1YRZ-4" target="OizBejJ-ZaFwju5l1YRZ-46">
          <mxGeometry relative="1" as="geometry" />
        </mxCell>
        <mxCell id="OizBejJ-ZaFwju5l1YRZ-4" value="Camera&#xa;Â Generator / Topic" style="rounded=1;fillColor=#d5e8d4;strokeColor=#82b366;fontStyle=0;" vertex="1" parent="1">
          <mxGeometry x="160" y="580" width="120" height="60" as="geometry" />
        </mxCell>
        <mxCell id="OizBejJ-ZaFwju5l1YRZ-55" style="edgeStyle=orthogonalEdgeStyle;rounded=0;orthogonalLoop=1;jettySize=auto;html=1;exitX=0.5;exitY=0;exitDx=0;exitDy=0;entryX=0.5;entryY=1;entryDx=0;entryDy=0;" edge="1" parent="1" source="OizBejJ-ZaFwju5l1YRZ-5" target="OizBejJ-ZaFwju5l1YRZ-46">
          <mxGeometry relative="1" as="geometry" />
        </mxCell>
        <mxCell id="OizBejJ-ZaFwju5l1YRZ-5" value="LiDAR&#xa;Generator / Topic" style="rounded=1;fillColor=#d5e8d4;strokeColor=#82b366;fontStyle=0;" vertex="1" parent="1">
          <mxGeometry x="320" y="580" width="120" height="60" as="geometry" />
        </mxCell>
        <mxCell id="OizBejJ-ZaFwju5l1YRZ-25" style="edgeStyle=orthogonalEdgeStyle;rounded=0;orthogonalLoop=1;jettySize=auto;html=1;exitX=1;exitY=0.5;exitDx=0;exitDy=0;entryX=1;entryY=0.5;entryDx=0;entryDy=0;dashed=1;" edge="1" parent="1" source="OizBejJ-ZaFwju5l1YRZ-6" target="OizBejJ-ZaFwju5l1YRZ-9">
          <mxGeometry relative="1" as="geometry">
            <Array as="points">
              <mxPoint x="620" y="610" />
              <mxPoint x="620" y="370" />
            </Array>
          </mxGeometry>
        </mxCell>
        <mxCell id="OizBejJ-ZaFwju5l1YRZ-57" style="edgeStyle=orthogonalEdgeStyle;rounded=0;orthogonalLoop=1;jettySize=auto;html=1;exitX=0.5;exitY=0;exitDx=0;exitDy=0;entryX=0.861;entryY=1.042;entryDx=0;entryDy=0;entryPerimeter=0;" edge="1" parent="1" source="OizBejJ-ZaFwju5l1YRZ-6" target="OizBejJ-ZaFwju5l1YRZ-46">
          <mxGeometry relative="1" as="geometry" />
        </mxCell>
        <mxCell id="OizBejJ-ZaFwju5l1YRZ-6" value="GNSS&#xa;Generator / Topic" style="rounded=1;fillColor=#d5e8d4;strokeColor=#82b366;fontStyle=0;" vertex="1" parent="1">
          <mxGeometry x="480" y="580" width="120" height="60" as="geometry" />
        </mxCell>
        <mxCell id="OizBejJ-ZaFwju5l1YRZ-19" style="edgeStyle=orthogonalEdgeStyle;rounded=0;orthogonalLoop=1;jettySize=auto;html=1;exitX=0.5;exitY=0;exitDx=0;exitDy=0;entryX=0;entryY=0.5;entryDx=0;entryDy=0;" edge="1" parent="1" source="OizBejJ-ZaFwju5l1YRZ-7" target="OizBejJ-ZaFwju5l1YRZ-10">
          <mxGeometry relative="1" as="geometry" />
        </mxCell>
        <mxCell id="OizBejJ-ZaFwju5l1YRZ-7" value="Camera&lt;br&gt;processing" style="rounded=1;html=1;fillColor=#fff2cc;strokeColor=#d6b656;fontStyle=0;" vertex="1" parent="1">
          <mxGeometry x="160" y="340" width="120" height="60" as="geometry" />
        </mxCell>
        <mxCell id="OizBejJ-ZaFwju5l1YRZ-18" style="edgeStyle=orthogonalEdgeStyle;rounded=0;orthogonalLoop=1;jettySize=auto;html=1;exitX=0.5;exitY=0;exitDx=0;exitDy=0;entryX=0.5;entryY=1;entryDx=0;entryDy=0;" edge="1" parent="1" source="OizBejJ-ZaFwju5l1YRZ-8" target="OizBejJ-ZaFwju5l1YRZ-10">
          <mxGeometry relative="1" as="geometry" />
        </mxCell>
        <mxCell id="OizBejJ-ZaFwju5l1YRZ-8" value="LiDAR&lt;br&gt;processing" style="rounded=1;html=1;fillColor=#fff2cc;strokeColor=#d6b656;fontStyle=0;" vertex="1" parent="1">
          <mxGeometry x="320" y="340" width="120" height="60" as="geometry" />
        </mxCell>
        <mxCell id="OizBejJ-ZaFwju5l1YRZ-17" style="edgeStyle=orthogonalEdgeStyle;rounded=0;orthogonalLoop=1;jettySize=auto;html=1;exitX=0.5;exitY=0;exitDx=0;exitDy=0;entryX=1;entryY=0.5;entryDx=0;entryDy=0;" edge="1" parent="1" source="OizBejJ-ZaFwju5l1YRZ-9" target="OizBejJ-ZaFwju5l1YRZ-10">
          <mxGeometry relative="1" as="geometry" />
        </mxCell>
        <mxCell id="OizBejJ-ZaFwju5l1YRZ-9" value="GNSS&#xa;processing" style="rounded=1;fillColor=#fff2cc;strokeColor=#d6b656;fontStyle=0;" vertex="1" parent="1">
          <mxGeometry x="480" y="340" width="120" height="60" as="geometry" />
        </mxCell>
        <mxCell id="OizBejJ-ZaFwju5l1YRZ-10" value="JPDA" style="rounded=1;html=1;fillColor=#e1d5e7;strokeColor=#9673a6;fontStyle=0;" vertex="1" parent="1">
          <mxGeometry x="320" y="230" width="120" height="60" as="geometry" />
        </mxCell>
        <mxCell id="OizBejJ-ZaFwju5l1YRZ-20" value="" style="endArrow=classic;html=1;rounded=0;" edge="1" parent="1">
          <mxGeometry width="50" height="50" relative="1" as="geometry">
            <mxPoint x="140" y="188" as="sourcePoint" />
            <mxPoint x="220" y="188" as="targetPoint" />
          </mxGeometry>
        </mxCell>
        <mxCell id="OizBejJ-ZaFwju5l1YRZ-21" value="Simulated datastream path" style="text;align=center;verticalAlign=middle;resizable=0;points=[];autosize=1;strokeColor=none;fillColor=none;" vertex="1" parent="1">
          <mxGeometry x="221" y="171" width="170" height="30" as="geometry" />
        </mxCell>
        <mxCell id="OizBejJ-ZaFwju5l1YRZ-22" value="ROS topic path" style="text;align=center;verticalAlign=middle;resizable=0;points=[];autosize=1;strokeColor=none;fillColor=none;" vertex="1" parent="1">
          <mxGeometry x="227" y="194" width="100" height="30" as="geometry" />
        </mxCell>
        <mxCell id="OizBejJ-ZaFwju5l1YRZ-28" value="" style="endArrow=classic;html=1;rounded=0;dashed=1;" edge="1" parent="1">
          <mxGeometry width="50" height="50" relative="1" as="geometry">
            <mxPoint x="140" y="210" as="sourcePoint" />
            <mxPoint x="220" y="210" as="targetPoint" />
          </mxGeometry>
        </mxCell>
        <mxCell id="OizBejJ-ZaFwju5l1YRZ-29" value="Frame" style="text;align=center;verticalAlign=middle;resizable=0;points=[];autosize=1;strokeColor=none;fillColor=none;fontSize=10;" vertex="1" parent="1">
          <mxGeometry x="217" y="550" width="50" height="30" as="geometry" />
        </mxCell>
        <mxCell id="OizBejJ-ZaFwju5l1YRZ-30" value="Points" style="text;align=center;verticalAlign=middle;resizable=0;points=[];autosize=1;strokeColor=none;fillColor=none;fontSize=10;" vertex="1" parent="1">
          <mxGeometry x="375" y="550" width="50" height="30" as="geometry" />
        </mxCell>
        <mxCell id="OizBejJ-ZaFwju5l1YRZ-31" value="GNSS&#xa;string" style="text;align=center;verticalAlign=middle;resizable=0;points=[];autosize=1;strokeColor=none;fillColor=none;fontSize=10;" vertex="1" parent="1">
          <mxGeometry x="535" y="545" width="50" height="40" as="geometry" />
        </mxCell>
        <mxCell id="OizBejJ-ZaFwju5l1YRZ-32" value="Trash &#xa;location (x,y)" style="text;align=left;verticalAlign=middle;resizable=0;points=[];autosize=1;strokeColor=none;fillColor=none;fontSize=10;" vertex="1" parent="1">
          <mxGeometry x="221" y="300" width="80" height="40" as="geometry" />
        </mxCell>
        <mxCell id="OizBejJ-ZaFwju5l1YRZ-33" value="Position&#xa;(lat, long)" style="text;align=center;verticalAlign=middle;resizable=0;points=[];autosize=1;strokeColor=none;fillColor=none;fontSize=10;" vertex="1" parent="1">
          <mxGeometry x="615" y="450" width="70" height="40" as="geometry" />
        </mxCell>
        <mxCell id="OizBejJ-ZaFwju5l1YRZ-34" value="Position&#xa;(lat, long)" style="text;align=center;verticalAlign=middle;resizable=0;points=[];autosize=1;strokeColor=none;fillColor=none;fontSize=10;" vertex="1" parent="1">
          <mxGeometry x="536" y="400" width="70" height="40" as="geometry" />
        </mxCell>
        <mxCell id="OizBejJ-ZaFwju5l1YRZ-35" value="Filtered&#xa;points" style="text;align=center;verticalAlign=middle;resizable=0;points=[];autosize=1;strokeColor=none;fillColor=none;fontSize=10;" vertex="1" parent="1">
          <mxGeometry x="375" y="400" width="60" height="40" as="geometry" />
        </mxCell>
        <mxCell id="OizBejJ-ZaFwju5l1YRZ-36" value="Frame + &#xa;timestamp" style="text;align=center;verticalAlign=middle;resizable=0;points=[];autosize=1;strokeColor=none;fillColor=none;fontSize=10;" vertex="1" parent="1">
          <mxGeometry x="215" y="400" width="70" height="40" as="geometry" />
        </mxCell>
        <mxCell id="OizBejJ-ZaFwju5l1YRZ-37" value="Frame + &#xa;timestamp" style="text;align=center;verticalAlign=middle;resizable=0;points=[];autosize=1;strokeColor=none;fillColor=none;fontSize=10;" vertex="1" parent="1">
          <mxGeometry x="75" y="450" width="70" height="40" as="geometry" />
        </mxCell>
        <mxCell id="OizBejJ-ZaFwju5l1YRZ-38" value="Cluster&#xa;centers (x,y)" style="text;align=left;verticalAlign=middle;resizable=0;points=[];autosize=1;strokeColor=none;fillColor=none;fontSize=10;" vertex="1" parent="1">
          <mxGeometry x="385" y="300" width="80" height="40" as="geometry" />
        </mxCell>
        <mxCell id="OizBejJ-ZaFwju5l1YRZ-39" value="Position (x,y)" style="text;align=center;verticalAlign=middle;resizable=0;points=[];autosize=1;strokeColor=none;fillColor=none;fontSize=10;" vertex="1" parent="1">
          <mxGeometry x="535" y="305" width="80" height="30" as="geometry" />
        </mxCell>
        <mxCell id="OizBejJ-ZaFwju5l1YRZ-42" value="LiDAR&#xa;processing" style="rounded=1;fillColor=#fff2cc;strokeColor=#d6b656;fontStyle=0;" vertex="1" parent="1">
          <mxGeometry x="320" y="340" width="120" height="60" as="geometry" />
        </mxCell>
        <mxCell id="OizBejJ-ZaFwju5l1YRZ-43" value="JPDA" style="rounded=1;fillColor=#e1d5e7;strokeColor=#9673a6;fontStyle=0;" vertex="1" parent="1">
          <mxGeometry x="320" y="230" width="120" height="60" as="geometry" />
        </mxCell>
        <mxCell id="OizBejJ-ZaFwju5l1YRZ-44" value="Camera&#xa;processing" style="rounded=1;fillColor=#fff2cc;strokeColor=#d6b656;fontStyle=0;" vertex="1" parent="1">
          <mxGeometry x="160" y="340" width="120" height="60" as="geometry" />
        </mxCell>
        <mxCell id="OizBejJ-ZaFwju5l1YRZ-46" value="Scheduler" style="rounded=1;whiteSpace=wrap;html=1;fillColor=#f5f5f5;fontColor=#333333;strokeColor=#666666;" vertex="1" parent="1">
          <mxGeometry x="160" y="530" width="440" height="20" as="geometry" />
        </mxCell>
        <mxCell id="OizBejJ-ZaFwju5l1YRZ-62" style="edgeStyle=orthogonalEdgeStyle;rounded=0;orthogonalLoop=1;jettySize=auto;html=1;exitX=0.25;exitY=0;exitDx=0;exitDy=0;entryX=0.25;entryY=1;entryDx=0;entryDy=0;dashed=1;" edge="1" parent="1" source="OizBejJ-ZaFwju5l1YRZ-5" target="OizBejJ-ZaFwju5l1YRZ-2">
          <mxGeometry relative="1" as="geometry" />
        </mxCell>
      </root>
    </mxGraphModel>
  </diagram>
</mxfile>
